<svg width="30" height="30" viewBox="0 0 30 30" fill="none" xmlns="http://www.w3.org/2000/svg">
<path d="M25.3125 2.34375H23.7891V1.17188C23.7891 0.524648 23.2644 0 22.6172 0C21.97 0 21.4453 0.524648 21.4453 1.17188V2.34375H16.1133V1.17188C16.1133 0.524648 15.5886 0 14.9414 0C14.2942 0 13.7695 0.524648 13.7695 1.17188V2.34375H8.49609V1.17188C8.49609 0.524648 7.97145 0 7.32422 0C6.67699 0 6.15234 0.524648 6.15234 1.17188V2.34375H4.6875C2.10281 2.34375 0 4.44656 0 7.03125V25.3125C0 27.8972 2.10281 30 4.6875 30H13.6523C14.2996 30 14.8242 29.4754 14.8242 28.8281C14.8242 28.1809 14.2996 27.6562 13.6523 27.6562H4.6875C3.39516 27.6562 2.34375 26.6048 2.34375 25.3125V7.03125C2.34375 5.73891 3.39516 4.6875 4.6875 4.6875H6.15234V5.85938C6.15234 6.5066 6.67699 7.03125 7.32422 7.03125C7.97145 7.03125 8.49609 6.5066 8.49609 5.85938V4.6875H13.7695V5.85938C13.7695 6.5066 14.2942 7.03125 14.9414 7.03125C15.5886 7.03125 16.1133 6.5066 16.1133 5.85938V4.6875H21.4453V5.85938C21.4453 6.5066 21.97 7.03125 22.6172 7.03125C23.2644 7.03125 23.7891 6.5066 23.7891 5.85938V4.6875H25.3125C26.6048 4.6875 27.6562 5.73891 27.6562 7.03125V13.7109C27.6562 14.3582 28.1809 14.8828 28.8281 14.8828C29.4754 14.8828 30 14.3582 30 13.7109V7.03125C30 4.44656 27.8972 2.34375 25.3125 2.34375Z" fill="#6E5A45"/>
</svg>
