<svg width="241" height="168" viewBox="0 0 241 168" fill="none" xmlns="http://www.w3.org/2000/svg">
<path d="M52.4967 161V146.88H54.4767V156.04L54.3567 158.1H54.3967C54.8634 157.22 55.2634 156.527 55.5967 156.02L61.8567 146.88H63.7967V161H61.8367V151.84L61.9567 149.78H61.9167C61.4634 150.633 61.0701 151.32 60.7367 151.84L54.4367 161H52.4967ZM67.0586 161V150.88H75.8986V161H73.9586V152.54H68.9986V161H67.0586ZM78.2345 155.92C78.2345 154.413 78.7612 153.16 79.8145 152.16C80.8679 151.147 82.1545 150.64 83.6745 150.64C85.2079 150.64 86.5012 151.14 87.5545 152.14C88.6079 153.14 89.1345 154.4 89.1345 155.92C89.1345 157.44 88.6079 158.707 87.5545 159.72C86.5012 160.733 85.2145 161.24 83.6945 161.24C82.1745 161.24 80.8812 160.733 79.8145 159.72C78.7612 158.707 78.2345 157.44 78.2345 155.92ZM80.2145 155.92C80.2145 156.973 80.5479 157.847 81.2145 158.54C81.8945 159.22 82.7212 159.56 83.6945 159.56C84.6545 159.56 85.4745 159.213 86.1545 158.52C86.8345 157.827 87.1745 156.96 87.1745 155.92C87.1745 154.88 86.8345 154.02 86.1545 153.34C85.4745 152.66 84.6545 152.32 83.6945 152.32C82.7212 152.32 81.8945 152.66 81.2145 153.34C80.5479 154.02 80.2145 154.88 80.2145 155.92ZM93.5806 161V152.54H90.0606V150.88H99.0406V152.54H95.5006V161H93.5806ZM99.9533 155.94C99.9533 154.353 100.433 153.073 101.393 152.1C102.353 151.127 103.567 150.64 105.033 150.64C106.407 150.64 107.48 151.093 108.253 152C109.027 152.893 109.413 154.02 109.413 155.38C109.413 155.553 109.387 155.827 109.333 156.2H101.973C102.027 157.253 102.38 158.08 103.033 158.68C103.7 159.267 104.507 159.56 105.453 159.56C106.56 159.56 107.553 159.167 108.433 158.38L109.253 159.8C108.773 160.24 108.173 160.593 107.453 160.86C106.747 161.113 106.04 161.24 105.333 161.24C103.76 161.24 102.467 160.74 101.453 159.74C100.453 158.727 99.9533 157.46 99.9533 155.94ZM102.033 154.8H107.453C107.427 153.96 107.18 153.307 106.713 152.84C106.26 152.373 105.687 152.14 104.993 152.14C104.233 152.14 103.58 152.38 103.033 152.86C102.5 153.327 102.167 153.973 102.033 154.8ZM111.746 161V150.88H113.686V154.96H115.106L117.866 150.88H120.066L116.686 155.7V155.74L120.466 161H118.166L115.146 156.62H113.686V161H111.746ZM121.258 158.24C121.258 157.493 121.464 156.867 121.878 156.36C122.291 155.853 122.838 155.493 123.518 155.28C124.211 155.053 124.851 154.9 125.438 154.82C126.024 154.74 126.644 154.7 127.298 154.7H127.818V154.5C127.818 153.02 127.078 152.28 125.598 152.28C124.624 152.28 123.678 152.607 122.758 153.26L121.978 151.84C122.391 151.493 122.951 151.207 123.658 150.98C124.364 150.753 125.064 150.64 125.758 150.64C127.038 150.64 128.024 150.98 128.718 151.66C129.411 152.34 129.758 153.32 129.758 154.6V161H127.938V159.98L127.998 159.18H127.958C127.651 159.78 127.198 160.273 126.598 160.66C126.011 161.047 125.358 161.24 124.638 161.24C123.718 161.24 122.924 160.967 122.258 160.42C121.591 159.873 121.258 159.147 121.258 158.24ZM123.198 158.08C123.198 158.52 123.364 158.9 123.698 159.22C124.031 159.54 124.498 159.7 125.098 159.7C125.898 159.7 126.551 159.367 127.058 158.7C127.564 158.033 127.818 157.293 127.818 156.48V156.1H127.318C124.571 156.1 123.198 156.76 123.198 158.08ZM136.965 155.92C136.965 154.413 137.492 153.16 138.545 152.16C139.598 151.147 140.885 150.64 142.405 150.64C143.938 150.64 145.232 151.14 146.285 152.14C147.338 153.14 147.865 154.4 147.865 155.92C147.865 157.44 147.338 158.707 146.285 159.72C145.232 160.733 143.945 161.24 142.425 161.24C140.905 161.24 139.612 160.733 138.545 159.72C137.492 158.707 136.965 157.44 136.965 155.92ZM138.945 155.92C138.945 156.973 139.278 157.847 139.945 158.54C140.625 159.22 141.452 159.56 142.425 159.56C143.385 159.56 144.205 159.213 144.885 158.52C145.565 157.827 145.905 156.96 145.905 155.92C145.905 154.88 145.565 154.02 144.885 153.34C144.205 152.66 143.385 152.32 142.425 152.32C141.452 152.32 140.625 152.66 139.945 153.34C139.278 154.02 138.945 154.88 138.945 155.92ZM152.311 161V152.54H148.791V150.88H157.771V152.54H154.231V161H152.311ZM164.316 154.6C164.316 153.853 164.396 153.113 164.556 152.38C164.716 151.633 164.962 150.913 165.296 150.22C165.642 149.527 166.056 148.92 166.536 148.4C167.016 147.867 167.609 147.44 168.316 147.12C169.036 146.8 169.816 146.64 170.656 146.64C171.682 146.64 172.602 146.833 173.416 147.22L172.776 148.92C172.189 148.613 171.509 148.46 170.736 148.46C169.536 148.46 168.576 148.927 167.856 149.86C167.136 150.78 166.689 151.893 166.516 153.2H166.556C166.849 152.8 167.282 152.48 167.856 152.24C168.442 152 169.049 151.88 169.676 151.88C170.996 151.88 172.069 152.32 172.896 153.2C173.722 154.08 174.136 155.193 174.136 156.54C174.136 157.9 173.709 159.027 172.856 159.92C172.002 160.8 170.916 161.24 169.596 161.24C168.076 161.24 166.816 160.627 165.816 159.4C164.816 158.173 164.316 156.573 164.316 154.6ZM169.656 159.42C170.402 159.42 171.009 159.147 171.476 158.6C171.942 158.053 172.176 157.367 172.176 156.54C172.176 155.647 171.916 154.927 171.396 154.38C170.876 153.82 170.169 153.54 169.276 153.54C168.502 153.54 167.829 153.733 167.256 154.12C166.682 154.507 166.396 155.007 166.396 155.62C166.396 156.487 166.702 157.34 167.316 158.18C167.942 159.007 168.722 159.42 169.656 159.42ZM181.269 151.7C180.669 152.273 179.949 152.56 179.109 152.56C178.269 152.56 177.556 152.273 176.969 151.7C176.383 151.127 176.089 150.427 176.089 149.6C176.089 148.787 176.383 148.093 176.969 147.52C177.556 146.933 178.269 146.64 179.109 146.64C179.949 146.64 180.669 146.933 181.269 147.52C181.869 148.093 182.169 148.787 182.169 149.6C182.169 150.413 181.869 151.113 181.269 151.7ZM176.389 161L187.209 146.88H189.089L178.289 161H176.389ZM179.109 151.08C179.536 151.08 179.889 150.94 180.169 150.66C180.463 150.367 180.609 150.013 180.609 149.6C180.609 149.187 180.463 148.833 180.169 148.54C179.876 148.247 179.523 148.1 179.109 148.1C178.696 148.1 178.349 148.247 178.069 148.54C177.789 148.833 177.649 149.187 177.649 149.6C177.649 150.013 177.789 150.367 178.069 150.66C178.349 150.94 178.696 151.08 179.109 151.08ZM183.349 158.3C183.349 157.473 183.643 156.773 184.229 156.2C184.816 155.613 185.529 155.32 186.369 155.32C187.209 155.32 187.923 155.613 188.509 156.2C189.109 156.773 189.409 157.473 189.409 158.3C189.409 159.113 189.109 159.807 188.509 160.38C187.923 160.953 187.209 161.24 186.369 161.24C185.529 161.24 184.816 160.953 184.229 160.38C183.643 159.807 183.349 159.113 183.349 158.3ZM185.329 157.22C185.049 157.513 184.909 157.867 184.909 158.28C184.909 158.693 185.049 159.047 185.329 159.34C185.609 159.62 185.956 159.76 186.369 159.76C186.783 159.76 187.129 159.62 187.409 159.34C187.703 159.047 187.849 158.693 187.849 158.28C187.849 157.867 187.703 157.513 187.409 157.22C187.129 156.927 186.783 156.78 186.369 156.78C185.956 156.78 185.609 156.927 185.329 157.22Z" fill="#28292E"/>
<circle cx="150" cy="90" r="20" fill="white"/>
<path d="M20.28 8.94C19.68 5.76 17.54 5.48 16.14 5.48C14.74 5.48 12.6 5.76 12 8.94C11.7 10.76 11.58 12.1 11.58 14.38C11.58 16.66 11.7 18 12 19.82C12.6 23 14.74 23.28 16.14 23.28C17.54 23.28 19.68 23 20.28 19.82C20.58 18 20.7 16.66 20.7 14.38C20.7 12.1 20.58 10.76 20.28 8.94ZM18.8 19.58C18.42 22.06 17.7 22.74 16.14 22.74C14.58 22.74 13.86 22.06 13.48 19.58C13.18 17.88 13.2 16.22 13.2 14.38C13.2 12.54 13.18 10.88 13.48 9.18C13.86 6.7 14.58 6.02 16.14 6.02C17.7 6.02 18.42 6.7 18.8 9.18C19.1 10.88 19.08 12.54 19.08 14.38C19.08 16.22 19.1 17.88 18.8 19.58ZM29.2452 22.5H27.2852V5.44H26.1652L23.4652 6.08L23.5052 6.58L25.6252 6.16V22.5H23.3052V23H29.2452V22.5Z" fill="#E9C878"/>
<path d="M117.241 44.8275C114.194 44.8275 111.724 47.2977 111.724 50.3447C111.724 53.3918 114.194 55.862 117.241 55.862C120.288 55.862 122.759 53.3918 122.759 50.3447C122.759 47.2977 120.288 44.8275 117.241 44.8275ZM117.241 53.1034C115.718 53.1034 114.483 51.8684 114.483 50.3447C114.483 48.8211 115.718 47.5861 117.241 47.5861C118.765 47.5861 120 48.8211 120 50.3447C120 51.8684 118.765 53.1034 117.241 53.1034Z" fill="#3766CC"/>
<path d="M133.793 61.3793C130.746 61.3793 128.276 63.8494 128.276 66.8965C128.276 69.9436 130.746 72.4138 133.793 72.4138C136.84 72.4138 139.31 69.9436 139.31 66.8965C139.31 63.8494 136.84 61.3793 133.793 61.3793ZM133.793 69.6551C132.269 69.6551 131.034 68.4201 131.034 66.8965C131.034 65.3729 132.269 64.1379 133.793 64.1379C135.316 64.1379 136.551 65.3729 136.551 66.8965C136.551 68.4201 135.316 69.6551 133.793 69.6551Z" fill="#3766CC"/>
<path d="M135.575 46.6109L113.507 68.6793L115.457 70.6299L137.526 48.5615L135.575 46.6109Z" fill="#3766CC"/>
<path d="M158.107 42.8275L148.689 36.5517H148.965V26.8965C148.965 26.1348 148.348 25.5172 147.586 25.5172H140.69C139.928 25.5172 139.31 26.1348 139.31 26.8965V30.2965L126.283 21.6069C125.819 21.2976 125.215 21.2976 124.752 21.6069L92.9269 42.8275C90.9745 44.129 90.4467 46.7668 91.7483 48.7192C93.0498 50.6716 95.6876 51.1994 97.64 49.8978L102.069 46.9461V73.793H99.3103C99.3103 73.0312 98.6927 72.4136 97.931 72.4136H86.8965C86.1348 72.4136 85.5172 73.0312 85.5172 73.793H80V76.5516H85.5172V90.3446H80V93.1033H85.5172C85.5172 93.865 86.1348 94.4826 86.8965 94.4826H97.931C98.6927 94.4826 99.3103 93.865 99.3103 93.1033V92.5777L109.608 96.8536C115.222 99.1463 121.498 99.216 127.161 97.0481L148.469 88.9226C149.731 88.4429 150.747 87.4748 151.287 86.2371C151.844 84.9819 151.873 83.5552 151.367 82.2785C150.916 81.1369 150.061 80.2009 148.965 79.6481V46.9461L153.394 49.8978C155.347 51.1994 157.984 50.6716 159.286 48.7192C160.588 46.7668 160.06 44.1289 158.107 42.8275ZM96.5517 91.7239H88.2758V75.1723H96.5517V91.7239ZM142.069 28.2758H146.207V34.8965L142.069 32.1379V28.2758ZM148.757 85.1253C148.513 85.6884 148.053 86.1297 147.48 86.3488L126.172 94.4729C121.166 96.3908 115.617 96.3312 110.652 94.306L99.3103 89.5902V76.5516H102.807C107.38 76.5569 111.89 77.6216 115.983 79.6619C117.335 80.3366 118.825 80.6883 120.335 80.6895H131.034C132.177 80.6969 133.097 81.6291 133.09 82.7717C133.084 83.7288 132.422 84.5569 131.49 84.7736C131.309 84.7902 131.132 84.8274 130.949 84.8274H114.483V87.586H130.949C130.978 87.586 131.005 87.586 131.034 87.586C131.062 87.586 131.088 87.5778 131.117 87.5778C132.212 87.5602 133.293 87.331 134.301 86.9033L145.833 82.0081C146.382 81.7736 147.004 81.7736 147.553 82.0081C148.124 82.2493 148.573 82.7129 148.794 83.2922C149.029 83.8834 149.015 84.5441 148.757 85.1253ZM131.034 77.9309H120.335C119.253 77.9293 118.185 77.6771 117.216 77.1943C113.35 75.2685 109.138 74.1354 104.828 73.8619V45.1034L125.517 31.3103L146.207 45.1034V79.1171C145.708 79.1591 145.218 79.2767 144.754 79.466L135.811 83.2633C135.837 83.096 135.854 82.9276 135.862 82.7584C135.862 80.0923 133.701 77.9309 131.034 77.9309ZM155.75 47.8552C155.456 47.8552 155.169 47.7684 154.924 47.6054L126.283 28.5075C125.819 28.1982 125.215 28.1982 124.752 28.5075L96.1103 47.6027C95.4248 48.059 94.4993 47.8732 94.0429 47.1877C93.88 46.9428 93.7931 46.6554 93.7931 46.3613C93.7922 45.8625 94.0413 45.3963 94.4565 45.1199L125.517 24.4138L156.578 45.1227C156.993 45.3992 157.242 45.8653 157.241 46.364C157.241 47.1875 156.574 47.8551 155.75 47.8552Z" fill="#3766CC"/>
<path d="M93.7933 86.2068H91.0347V88.9654H93.7933V86.2068Z" fill="#3766CC"/>
</svg>
