<svg width="80" height="80" viewBox="0 0 80 80" fill="none" xmlns="http://www.w3.org/2000/svg">
<path d="M62.055 45.2629C54.6484 40.4422 44.7361 42.5385 39.9153 49.9451C38.2252 52.5419 37.3253 55.5733 37.325 58.6717C37.3205 61.7711 38.22 64.8044 39.9132 67.4004L42.148 65.9443C38.132 59.7713 39.8807 51.5114 46.0537 47.4954C52.2267 43.4795 60.4865 45.2281 64.5025 51.4011C68.5185 57.5741 66.7699 65.8339 60.5969 69.8499C56.1758 72.7262 50.4747 72.7262 46.0537 69.8499L44.5976 72.0848C52.0042 76.9055 61.9165 74.8092 66.7372 67.4026C71.5579 59.9958 69.4616 50.0837 62.055 45.2629Z" fill="#3766CC"/>
<path d="M59.7174 54.395L50.6594 63.4531L47.6018 60.3955L45.7163 62.281L49.7166 66.2813C49.9667 66.5313 50.3057 66.672 50.6594 66.672C51.0131 66.672 51.3521 66.5313 51.6021 66.2813L61.6029 56.2805L59.7174 54.395Z" fill="#3766CC"/>
<path d="M31.9911 45.337H11.9895V48.0039H31.9911V45.337Z" fill="#3766CC"/>
<path d="M34.6581 40.0032H19.9902V42.6701H34.6581V40.0032Z" fill="#3766CC"/>
<path d="M39.9918 33.3361H11.9895V36.0029H39.9918V33.3361Z" fill="#3766CC"/>
<path d="M51.9928 28.0023H19.9902V30.6692H51.9928V28.0023Z" fill="#3766CC"/>
<path d="M29.3242 57.338H11.9895V60.0049H29.3242V57.338Z" fill="#3766CC"/>
<path d="M29.3243 52.0043H19.9902V54.6711H29.3243V52.0043Z" fill="#3766CC"/>
<path d="M31.9911 69.339H11.9895V72.0059H31.9911V69.339Z" fill="#3766CC"/>
<path d="M29.3243 64.0052H19.9902V66.6721H29.3243V64.0052Z" fill="#3766CC"/>
<path d="M60.7463 38.6905C60.0626 38.4378 59.3662 38.2204 58.6602 38.0391V12.001H65.3274C66.0638 12.001 66.6608 11.4039 66.6608 10.6675V5.33377C66.6608 2.38803 64.2728 0 61.3271 0H10.6563C7.71054 0 5.32251 2.38803 5.32251 5.33377V77.3396C5.32251 78.076 5.91956 78.6731 6.65595 78.6731H45.9725C57.0134 82.7527 69.271 77.1096 73.3507 66.0687C77.4304 55.0278 71.7872 42.7701 60.7463 38.6905ZM58.6602 5.33377C58.6602 3.86081 59.8541 2.66688 61.3271 2.66688C62.8 2.66688 63.9939 3.86081 63.9939 5.33377V9.33409H58.6602V5.33377ZM7.98939 76.0062V5.33377C7.98939 3.86081 9.18332 2.66688 10.6563 2.66688H56.7347C56.2548 3.47412 55.9988 4.39469 55.9933 5.33377V37.5217C44.3228 36.0301 33.653 44.2818 32.1614 55.9522C31.1656 63.7433 34.5379 71.4503 40.9359 76.0062H7.98939ZM53.3264 77.3396C43.0162 77.3396 34.6582 68.9816 34.6582 58.6714C34.6582 48.3613 43.0162 40.0033 53.3264 40.0033C63.6319 40.0143 71.9836 48.3659 71.9946 58.6714C71.9946 68.9816 63.6366 77.3396 53.3264 77.3396Z" fill="#3766CC"/>
<path d="M17.3234 28.0023H14.6565V30.6692H17.3234V28.0023Z" fill="#3766CC"/>
<path d="M17.3234 40.0032H14.6565V42.6701H17.3234V40.0032Z" fill="#3766CC"/>
<path d="M17.3234 52.0043H14.6565V54.6711H17.3234V52.0043Z" fill="#3766CC"/>
<path d="M17.3234 64.0052H14.6565V66.6721H17.3234V64.0052Z" fill="#3766CC"/>
<path d="M36.2667 16C38.3285 16 40 14.2091 40 12C40 9.79088 38.3285 8 36.2667 8H29.7333V14H26V16H29.7333V18H26V20H29.7333V24H31.6V20H35.3333V18H31.6V16H36.2667V16ZM31.6 10H36.2667C37.2976 10 38.1333 10.8954 38.1333 12C38.1333 13.1046 37.2976 14 36.2667 14H31.6V10V10Z" fill="#3766CC"/>
</svg>
