<svg width="60" height="60" viewBox="0 0 60 60" fill="none" xmlns="http://www.w3.org/2000/svg">
    <circle cx="30" cy="30" r="29.25" stroke="#3766CC" stroke-width="1.5"/>              
    <path d="M31.1734 16.9648C30.4061 15.6559 29.5937 15.7011 28.8265 16.9648C25.306 22.2003 19.9802 30.0536 19.9802 33.9803C19.9802 36.7334 21.1086 39.2609 22.9139 41.0663C24.7193 42.8716 27.2468 44 29.9999 44C32.7531 44 35.2806 42.8716 37.0859 41.0663C38.8913 39.2609 40.0196 36.7334 40.0196 33.9803C40.0196 30.0085 34.6938 22.2003 31.1734 16.9648ZM37.2213 38.4485C36.4992 39.622 35.4611 40.6601 34.1974 41.3822C33.6106 41.6981 32.8885 41.5176 32.5726 40.9309C32.2115 40.299 32.4372 39.5769 33.0239 39.2609C33.9266 38.7644 34.6487 38.0423 35.1903 37.1848C35.7319 36.3272 36.0479 35.3343 36.093 34.2962C36.1381 33.6192 36.6797 33.1227 37.3567 33.1678C38.0337 33.213 38.5302 33.7546 38.4851 34.4316C38.3948 35.8759 37.9435 37.2299 37.2213 38.4485Z" fill="#3766CC"/>
</svg>
