<svg width="60" height="60" viewBox="0 0 60 60" fill="none" xmlns="http://www.w3.org/2000/svg">
<path d="M41.9915 18.5993C40.7313 17.3391 39.0379 16.5908 37.1083 16.5908C35.218 16.5908 33.4852 17.3784 32.225 18.5993C30.9648 19.8595 30.2166 21.5528 30.2166 23.4825C30.2166 24.3095 30.886 24.979 31.713 24.979C32.54 24.979 33.2095 24.3095 33.2095 23.4825C33.2095 22.4192 33.6427 21.4347 34.3516 20.7258C35.0604 20.017 36.045 19.5838 37.1083 19.5838C38.1716 19.5838 39.1561 20.017 39.8649 20.7258C40.5738 21.4347 41.007 22.4192 41.007 23.4825C41.007 24.5458 40.5738 25.5303 39.8649 26.2392C39.1561 26.9481 38.1716 27.3813 37.1083 27.3813C37.0689 27.3813 37.0295 27.3813 36.9901 27.3813H18.6779C17.8509 27.3813 17.1814 28.0507 17.1814 28.8777C17.1814 29.7047 17.8509 30.3742 18.6779 30.3742H36.9901C37.0295 30.3742 37.0689 30.3742 37.1083 30.3742C38.9986 30.3742 40.7313 29.5866 41.9915 28.3658C43.2517 27.1056 44 25.4122 44 23.4825C44 21.5922 43.2123 19.8595 41.9915 18.5993Z" fill="#3766CC"/>
<path d="M31.8312 32.0676C31.7918 32.0676 31.7525 32.0676 31.7131 32.0676H17.4965C16.6695 32.0676 16 32.7371 16 33.5641C16.0394 34.3517 16.7089 35.0212 17.5359 35.0212H31.7525C31.7918 35.0212 31.8312 35.0212 31.8706 35.0212C32.6188 35.0212 33.2883 35.3363 33.8003 35.8088C34.2729 36.2814 34.5879 36.9903 34.5879 37.7385C34.5879 38.4868 34.2729 39.1562 33.8003 39.6682C33.3277 40.1408 32.6188 40.4558 31.8706 40.4558C31.1224 40.4558 30.4529 40.1408 29.9409 39.6682C29.4684 39.1956 29.1533 38.4868 29.1533 37.7385C29.1533 36.9115 28.4838 36.242 27.6568 36.242C26.8298 36.242 26.1603 36.9115 26.1603 37.7385C26.1603 39.3138 26.7904 40.7315 27.8143 41.7554C28.8383 42.7793 30.256 43.4094 31.8312 43.4094C33.4065 43.4094 34.8242 42.7793 35.8481 41.7554C36.872 40.7315 37.5021 39.3138 37.5021 37.7385C37.5021 36.1633 36.872 34.7455 35.8481 33.7216C34.8242 32.6977 33.4065 32.0676 31.8312 32.0676Z" fill="#3766CC"/>
<circle cx="30" cy="30" r="29.25" stroke="#3766CC" stroke-width="1.5"/>
</svg>
