<svg width="60" height="60" viewBox="0 0 60 60" fill="none" xmlns="http://www.w3.org/2000/svg">
<circle cx="30" cy="30" r="29.25" stroke="#3766CC" stroke-width="1.5"/>
<path d="M18.9515 41.7667C18.0894 41.1432 17.8975 39.9413 18.5234 39.082C19.7712 37.3689 20.3395 35.7422 20.212 34.247C19.9775 31.4925 17.2344 30.0012 16.9546 26.0509C16.7812 23.603 17.6694 21.1012 19.5946 18.615C20.2453 17.7742 21.4568 17.6186 22.3002 18.2672C23.1438 18.9157 23.2999 20.1226 22.6492 20.963C21.3195 22.6805 20.6984 24.3013 20.8031 25.7805C20.9935 28.4676 23.7182 29.9533 24.0562 33.922C24.2641 36.3629 23.453 38.8587 21.6457 41.3401C21.02 42.1992 19.8137 42.3903 18.9515 41.7667ZM28.5967 41.7667C27.7345 41.1432 27.5427 39.9413 28.1686 39.082C29.4164 37.3689 29.9845 35.7422 29.8572 34.247C29.6227 31.4925 26.8796 30.0012 26.5998 26.0509C26.4264 23.603 27.3146 21.1012 29.2398 18.615C29.8906 17.7742 31.102 17.6186 31.9454 18.2672C32.789 18.9157 32.9451 20.1226 32.2944 20.963C29.124 25.0575 30.7529 27.351 31.7741 28.9746C32.5905 30.2728 33.516 31.7443 33.7015 33.9219C33.9094 36.3628 33.0983 38.8586 31.291 41.34C30.6652 42.1992 29.4588 42.3903 28.5967 41.7667Z" fill="#3766CC"/>
<path d="M37.7061 41.7667C36.8064 41.1432 36.6062 39.9413 37.2593 39.082C38.5616 37.3689 39.1546 35.7422 39.0216 34.247C38.7769 31.4925 35.9142 30.0012 35.6222 26.0509C35.4412 23.603 36.3681 21.1012 38.3773 18.615C39.0563 17.7742 40.3207 17.6186 41.2008 18.2672C42.0812 18.9157 42.2441 20.1226 41.5651 20.963C40.1774 22.6805 39.5292 24.3013 39.6385 25.7805C39.8372 28.4676 42.6806 29.9533 43.0334 33.922C43.2503 36.3629 42.4039 38.8587 40.5177 41.3401C39.8649 42.1992 38.6059 42.3903 37.7061 41.7667Z" fill="#3766CC"/>
</svg>
