<svg width="60" height="60" viewBox="0 0 60 60" fill="none" xmlns="http://www.w3.org/2000/svg">
<circle cx="30" cy="30" r="29.25" stroke="#3766CC" stroke-width="1.5"/>
<mask id="mask0_0_1" style="mask-type:alpha" maskUnits="userSpaceOnUse" x="45" y="0" width="15" height="60">
<rect x="45" width="15" height="60" fill="#C4C4C4"/>
</mask>
<g mask="url(#mask0_0_1)">
<circle cx="30" cy="30" r="29.25" fill="#3766CC" stroke="#3766CC" stroke-width="1.5"/>
</g>
<g clip-path="url(#clip0_0_1)">
<path d="M13.1667 35.1998H17.0667V24.7998H13.1667C12.592 24.7998 12.0409 25.0281 11.6346 25.4344C11.2283 25.8407 11 26.3918 11 26.9665V33.0331C11 33.6078 11.2283 34.1589 11.6346 34.5652C12.0409 34.9715 12.592 35.1998 13.1667 35.1998Z" fill="#3766CC"/>
<path d="M27.4668 41.626V18.3742C27.4668 18.1926 27.4142 18.0149 27.3154 17.8625C27.2166 17.7102 27.0759 17.5897 26.9101 17.5156C26.7443 17.4414 26.5607 17.4169 26.3813 17.4448C26.2019 17.4727 26.0344 17.552 25.899 17.673L17.9335 24.8001V35.2001L25.899 42.3271C26.0344 42.4481 26.2019 42.5274 26.3813 42.5553C26.5607 42.5833 26.7443 42.5587 26.9101 42.4846C27.0759 42.4104 27.2166 42.2899 27.3154 42.1376C27.4142 41.9852 27.4668 41.8075 27.4668 41.626Z" fill="#3766CC"/>
<path d="M30.814 21.0734C30.6824 21.0234 30.5406 21.006 30.4007 21.0228C30.2609 21.0396 30.1272 21.09 30.0112 21.1698C29.8951 21.2495 29.8001 21.3562 29.7342 21.4807C29.6684 21.6052 29.6337 21.7438 29.6332 21.8846C29.6334 22.0607 29.6875 22.2325 29.7882 22.377C29.8889 22.5214 30.0314 22.6316 30.1965 22.6927C31.6858 23.2488 32.9696 24.2466 33.8761 25.5526C34.7825 26.8586 35.2683 28.4103 35.2683 30C35.2683 31.5898 34.7825 33.1415 33.8761 34.4475C32.9696 35.7535 31.6858 36.7513 30.1965 37.3073C30.0314 37.3685 29.8889 37.4787 29.7882 37.6231C29.6875 37.7676 29.6334 37.9394 29.6332 38.1155C29.6337 38.2563 29.6684 38.3949 29.7342 38.5194C29.8001 38.6439 29.8951 38.7506 30.0112 38.8303C30.1272 38.9101 30.2609 38.9605 30.4007 38.9773C30.5406 38.9941 30.6824 38.9767 30.814 38.9267C32.6313 38.2454 34.1974 37.0257 35.3029 35.4306C36.4085 33.8354 37.0008 31.9409 37.0008 30C37.0008 28.0592 36.4085 26.1647 35.3029 24.5695C34.1974 22.9744 32.6313 21.7547 30.814 21.0734Z" fill="#3766CC"/>
<path d="M29.986 33.5244C29.8765 33.6037 29.7874 33.7079 29.7261 33.8285C29.6647 33.949 29.6329 34.0824 29.6333 34.2177C29.6331 34.3755 29.676 34.5303 29.7573 34.6655C29.8387 34.8007 29.9554 34.9112 30.0948 34.9849C30.2343 35.0587 30.3913 35.0929 30.5488 35.0841C30.7064 35.0752 30.8585 35.0234 30.9888 34.9344C31.7756 34.3741 32.417 33.6338 32.8597 32.7752C33.3023 31.9167 33.5332 30.9647 33.5332 29.9988C33.5332 29.0328 33.3023 28.0809 32.8597 27.2223C32.417 26.3637 31.7756 25.6234 30.9888 25.0631C30.8584 24.9741 30.7062 24.9223 30.5485 24.9135C30.3909 24.9046 30.2338 24.939 30.0943 25.0129C29.9547 25.0868 29.8381 25.1975 29.7568 25.3328C29.6756 25.4682 29.6329 25.6232 29.6333 25.7811C29.633 25.9164 29.6648 26.0498 29.7261 26.1703C29.7874 26.2909 29.8765 26.3951 29.986 26.4745C30.5471 26.8751 31.0043 27.4039 31.3198 28.0169C31.6353 28.6299 31.7999 29.3094 31.7999 29.9988C31.7999 30.6882 31.6353 31.3676 31.3198 31.9806C31.0043 32.5936 30.5471 33.1224 29.986 33.5231V33.5244Z" fill="#3766CC"/>
</g>
<defs>
<clipPath id="clip0_0_1">
<rect width="26" height="26" fill="white" transform="translate(11 17)"/>
</clipPath>
</defs>
</svg>
