<svg width="60" height="60" viewBox="0 0 60 60" fill="none" xmlns="http://www.w3.org/2000/svg">
<circle cx="30" cy="30" r="29.25" stroke="#3766CC" stroke-width="1.5"/>
<path d="M34.8118 27.8H36.9576C37.3529 27.8 37.6917 27.4894 37.6917 27.0659C37.6917 26.6706 37.3812 26.3318 36.9576 26.3318H34.8118C34.4165 26.3318 34.0776 26.6424 34.0776 27.0659C34.0776 27.4894 34.4165 27.8 34.8118 27.8Z" fill="#3766CC"/>
<path d="M38.087 33.8423H34.8118C34.4165 33.8423 34.0776 34.1529 34.0776 34.5764C34.0776 34.9717 34.3882 35.3105 34.8118 35.3105H38.087C38.4823 35.3105 38.8212 34.9999 38.8212 34.5764C38.8212 34.1529 38.4823 33.8423 38.087 33.8423Z" fill="#3766CC"/>
<path d="M34.7834 37.7671C34.614 37.4282 34.3881 37.1176 34.134 36.8071C33.9646 36.6094 33.7669 36.4118 33.5975 36.2141V27.2353C33.5975 26.6706 33.4846 26.1059 33.2869 25.6259C32.6093 24.0165 31.1128 23 29.3622 23C27.6116 23 26.1152 24.0165 25.4375 25.6259C25.2399 26.1341 25.1269 26.6706 25.1269 27.2353V36.2424C24.9293 36.4118 24.7599 36.6094 24.5905 36.8353C24.3364 37.1459 24.1387 37.4565 23.9411 37.7953C23.6869 38.2471 23.4893 38.7271 23.3764 39.2353C23.2352 39.7435 23.1787 40.2518 23.1787 40.7882C23.1787 41.6353 23.3481 42.4259 23.6587 43.16C23.9693 43.9224 24.4493 44.6 25.014 45.1647C25.5787 45.7294 26.2564 46.1812 27.0187 46.52C27.7528 46.8306 28.5434 47 29.3905 47C31.1128 47 32.6658 46.2941 33.7669 45.1929C34.3316 44.6282 34.7834 43.9506 35.1222 43.1882C35.4328 42.4541 35.6022 41.6635 35.6022 40.8165C35.6022 40.28 35.5458 39.7718 35.4046 39.2635C35.2352 38.6988 35.0375 38.2188 34.7834 37.7671ZM33.7387 42.5671C33.5128 43.1318 33.1458 43.6682 32.694 44.12C31.8469 44.9671 30.6328 45.5035 29.334 45.5035C28.6846 45.5035 28.0634 45.3624 27.5269 45.1365C26.9622 44.9106 26.4258 44.5435 25.974 44.0918C25.5222 43.64 25.1834 43.1318 24.9293 42.5388C24.7034 41.9741 24.5622 41.3812 24.5622 40.7318C24.5622 40.3082 24.6187 39.9129 24.7034 39.5459C24.7881 39.1506 24.9575 38.7835 25.1552 38.4447C25.2964 38.1906 25.4658 37.9365 25.6352 37.7106C25.8328 37.4847 26.0305 37.2871 26.2564 37.0894L26.5105 36.8635V36.5247V27.2353C26.5105 26.8682 26.5952 26.5012 26.7081 26.1624C26.8493 25.8518 27.0187 25.5694 27.2446 25.3153L27.3011 25.2588C27.5552 25.0047 27.8658 24.7788 28.2046 24.6376C28.5434 24.4965 28.8822 24.44 29.2775 24.44C29.6446 24.44 30.0116 24.5247 30.3505 24.6376C30.6893 24.7788 30.9999 24.9765 31.254 25.2588L31.3105 25.3153C31.5364 25.5694 31.734 25.8518 31.8469 26.1624C31.9881 26.5012 32.0446 26.84 32.0446 27.2353V36.5812V36.92L32.2987 37.1459C32.5246 37.3435 32.7222 37.5412 32.9199 37.7671C33.0893 37.9929 33.2587 38.2471 33.3999 38.5012C33.5975 38.84 33.7387 39.2353 33.8516 39.6024C33.9363 39.9694 33.9928 40.3647 33.9928 40.7882C34.1058 41.4094 33.9646 42.0306 33.7387 42.5671Z" fill="#3766CC"/>
<path d="M34.8118 30.313H38.087C38.4823 30.313 38.8212 30.0024 38.8212 29.5788C38.7929 29.1553 38.4823 28.8447 38.087 28.8447H34.8118C34.4165 28.8447 34.0776 29.1553 34.0776 29.5788C34.0776 29.9741 34.3882 30.313 34.8118 30.313Z" fill="#3766CC"/>
<path d="M34.8118 32.7976H36.9576C37.3529 32.7976 37.6917 32.487 37.6917 32.0635C37.6917 31.6682 37.3812 31.3293 36.9576 31.3293H34.8118C34.4165 31.3293 34.0776 31.6399 34.0776 32.0635C34.0776 32.4588 34.4165 32.7976 34.8118 32.7976Z" fill="#3766CC"/>
<path d="M32.5809 38.9812C32.4398 38.6988 32.2421 38.473 32.0445 38.2471C31.8186 38.0212 31.5927 37.8236 31.3386 37.6541L31.0845 37.4847V37.2024V33.7294C31.0845 33.0236 30.6892 32.4024 30.0115 32.1483C29.8139 32.0636 29.588 32.0071 29.3621 32.0071C29.1362 32.0071 28.9104 32.0636 28.7127 32.1483C28.0633 32.4306 27.6398 33.0236 27.6398 33.7294V37.2024V37.4847L27.3856 37.6541C27.1315 37.8236 26.8774 38.0212 26.6798 38.2471C26.4539 38.473 26.2845 38.7271 26.1433 38.9812C26.0021 39.2353 25.8892 39.5459 25.8045 39.8283C25.7198 40.1106 25.6915 40.4212 25.6915 40.7318C25.6915 41.2118 25.8045 41.6918 25.9739 42.1436C26.1715 42.5953 26.4256 42.9906 26.7645 43.3294C27.1033 43.6683 27.4986 43.9506 27.9504 44.12C28.3739 44.2894 28.8539 44.4024 29.3621 44.4024C29.8421 44.4024 30.3221 44.2894 30.7739 44.12C31.2256 43.9224 31.6209 43.6683 31.9598 43.3294C32.2986 42.9906 32.5809 42.5953 32.7504 42.1436C32.9198 41.72 33.0327 41.24 33.0327 40.7318C33.0327 40.4212 33.0045 40.1106 32.9198 39.8283C32.8351 39.5459 32.7221 39.2635 32.5809 38.9812Z" fill="#3766CC"/>
<path d="M41.1796 22.7357L37.6733 19.2294V15.179C37.6733 14.4466 37.0798 13.8531 36.3463 13.8531C35.6146 13.8531 35.0211 14.4466 35.0211 15.179V16.5773L32.4103 13.9664C31.1195 12.6763 28.8753 12.6786 27.5875 13.9687L18.8203 22.7357C18.3027 23.2543 18.3027 24.0934 18.8203 24.6112C19.3381 25.1296 20.1788 25.1296 20.6964 24.6112L29.4627 15.844C29.7483 15.5599 30.2516 15.5599 30.5357 15.8431L39.3036 24.6112C39.5635 24.8704 39.9025 24.9994 40.2414 24.9994C40.5809 24.9994 40.9205 24.8703 41.1797 24.6112C41.6974 24.0934 41.6974 23.2544 41.1796 22.7357Z" fill="#3766CC"/>
</svg>
