<svg width="60" height="60" viewBox="0 0 60 60" fill="none" xmlns="http://www.w3.org/2000/svg">
<circle cx="30" cy="30" r="29.25" stroke="#3766CC" stroke-width="1.5"/>
<path d="M45.4417 38.5593H40.2433C39.7143 38.5593 39.2376 38.2458 39.0352 37.756C38.8327 37.2727 38.9372 36.7111 39.3094 36.3323L43.1756 32.4009C43.2474 32.2899 43.3192 32.1266 43.3192 31.9176C43.3192 31.4278 42.9209 31.0295 42.4311 31.0295C41.9413 31.0295 41.5429 31.4278 41.5429 31.9176C41.5429 32.6425 40.9552 33.2238 40.2368 33.2238C39.5119 33.2238 38.9307 32.636 38.9307 31.9176C38.9307 29.9846 40.5045 28.4172 42.4311 28.4172C44.3576 28.4172 45.9315 29.9911 45.9315 31.9176C45.9315 32.6883 45.6833 33.4262 45.2196 34.0401C45.187 34.0858 45.1478 34.125 45.1086 34.1642L43.3584 35.9405H45.4417C46.1666 35.9405 46.7478 36.5282 46.7478 37.2466C46.7478 37.978 46.1666 38.5593 45.4417 38.5593Z" fill="#3766CC"/>
<path d="M31.6482 35.0122C28.1804 35.0122 25.3657 32.1909 25.3657 28.7297C25.3657 25.262 28.1869 22.4473 31.6482 22.4473C35.1159 22.4473 37.9306 25.2685 37.9306 28.7297C37.9306 32.1909 35.1159 35.0122 31.6482 35.0122ZM31.6482 25.0595C29.6237 25.0595 27.978 26.7052 27.978 28.7297C27.978 30.7542 29.6237 32.3999 31.6482 32.3999C33.6727 32.3999 35.3184 30.7542 35.3184 28.7297C35.3184 26.7052 33.6727 25.0595 31.6482 25.0595Z" fill="#3766CC"/>
<path d="M19.1584 34.7574C15.7624 34.7574 13 31.995 13 28.599C13 25.2031 15.7624 22.4407 19.1584 22.4407C21.1045 22.4407 22.9527 23.3746 24.1086 24.9419C24.5396 25.5231 24.4155 26.3395 23.8343 26.7705C23.2531 27.2015 22.4367 27.0774 22.0057 26.4962C21.3265 25.5819 20.2882 25.0595 19.1584 25.0595C17.2057 25.0595 15.6188 26.6464 15.6188 28.599C15.6188 30.5517 17.2057 32.1386 19.1584 32.1386C20.1576 32.1386 21.0849 31.7337 21.7641 30.9958C22.2539 30.4668 23.0833 30.4276 23.6122 30.9174C24.1412 31.4072 24.1804 32.2366 23.6906 32.7656C22.5216 34.0325 20.8759 34.7574 19.1584 34.7574Z" fill="#3766CC"/>
</svg>
