<svg width="60" height="60" viewBox="0 0 60 60" fill="none" xmlns="http://www.w3.org/2000/svg">
<path d="M39.447 21.5999H41.9506C42.4118 21.5999 42.807 21.2376 42.807 20.7434C42.807 20.2823 42.4447 19.887 41.9506 19.887H39.447C38.9859 19.887 38.5906 20.2493 38.5906 20.7434C38.5906 21.2376 38.9859 21.5999 39.447 21.5999Z" fill="#3766CC"/>
<path d="M43.2682 28.6494H39.447C38.9859 28.6494 38.5906 29.0118 38.5906 29.5059C38.5906 29.9671 38.9529 30.3624 39.447 30.3624H43.2682C43.7294 30.3624 44.1247 30 44.1247 29.5059C44.1247 29.0118 43.7294 28.6494 43.2682 28.6494Z" fill="#3766CC"/>
<path d="M39.4141 33.2282C39.2164 32.8329 38.9529 32.4706 38.6564 32.1082C38.4588 31.8776 38.2282 31.6471 38.0305 31.4165V20.9412C38.0305 20.2824 37.8988 19.6235 37.6682 19.0635C36.8776 17.1859 35.1317 16 33.0894 16C31.047 16 29.3011 17.1859 28.5105 19.0635C28.2799 19.6565 28.1482 20.2824 28.1482 20.9412V31.4494C27.9176 31.6471 27.7199 31.8776 27.5223 32.1412C27.2258 32.5035 26.9952 32.8659 26.7647 33.2612C26.4682 33.7882 26.2376 34.3482 26.1058 34.9412C25.9411 35.5341 25.8752 36.1271 25.8752 36.7529C25.8752 37.7412 26.0729 38.6635 26.4352 39.52C26.7976 40.4094 27.3576 41.2 28.0164 41.8588C28.6752 42.5176 29.4658 43.0447 30.3552 43.44C31.2117 43.8024 32.1341 44 33.1223 44C35.1317 44 36.9435 43.1765 38.2282 41.8918C38.887 41.2329 39.4141 40.4424 39.8094 39.5529C40.1717 38.6965 40.3694 37.7741 40.3694 36.7859C40.3694 36.16 40.3035 35.5671 40.1388 34.9741C39.9411 34.3153 39.7105 33.7553 39.4141 33.2282ZM38.1952 38.8282C37.9317 39.4871 37.5035 40.1129 36.9764 40.64C35.9882 41.6282 34.5717 42.2541 33.0564 42.2541C32.2988 42.2541 31.5741 42.0894 30.9482 41.8259C30.2894 41.5624 29.6635 41.1341 29.1364 40.6071C28.6094 40.08 28.2141 39.4871 27.9176 38.7953C27.6541 38.1365 27.4894 37.4447 27.4894 36.6871C27.4894 36.1929 27.5552 35.7318 27.6541 35.3035C27.7529 34.8424 27.9505 34.4141 28.1811 34.0188C28.3458 33.7224 28.5435 33.4259 28.7411 33.1624C28.9717 32.8988 29.2023 32.6682 29.4658 32.4376L29.7623 32.1741V31.7788V20.9412C29.7623 20.5129 29.8611 20.0847 29.9929 19.6894C30.1576 19.3271 30.3552 18.9976 30.6188 18.7012L30.6847 18.6353C30.9811 18.3388 31.3435 18.0753 31.7388 17.9106C32.1341 17.7459 32.5294 17.68 32.9905 17.68C33.4188 17.68 33.847 17.7788 34.2423 17.9106C34.6376 18.0753 34.9999 18.3059 35.2964 18.6353L35.3623 18.7012C35.6258 18.9976 35.8564 19.3271 35.9882 19.6894C36.1529 20.0847 36.2188 20.48 36.2188 20.9412V31.8447V32.24L36.5152 32.5035C36.7788 32.7341 37.0094 32.9647 37.2399 33.2282C37.4376 33.4918 37.6352 33.7882 37.7999 34.0847C38.0305 34.48 38.1952 34.9412 38.327 35.3694C38.4258 35.7976 38.4917 36.2588 38.4917 36.7529C38.6235 37.4776 38.4588 38.2024 38.1952 38.8282Z" fill="#3766CC"/>
<path d="M39.447 24.5318H43.2682C43.7294 24.5318 44.1247 24.1694 44.1247 23.6753C44.0917 23.1812 43.7294 22.8188 43.2682 22.8188H39.447C38.9859 22.8188 38.5906 23.1812 38.5906 23.6753C38.5906 24.1365 38.9529 24.5318 39.447 24.5318Z" fill="#3766CC"/>
<path d="M39.447 27.4305H41.9506C42.4118 27.4305 42.807 27.0681 42.807 26.574C42.807 26.1128 42.4447 25.7175 41.9506 25.7175H39.447C38.9859 25.7175 38.5906 26.0799 38.5906 26.574C38.5906 27.0352 38.9859 27.4305 39.447 27.4305Z" fill="#3766CC"/>
<path d="M36.8445 34.6445C36.6798 34.3151 36.4492 34.0516 36.2187 33.7881C35.9551 33.5245 35.6916 33.2939 35.3951 33.0963L35.0986 32.8986V32.5692V28.5175C35.0986 27.6939 34.6375 26.9692 33.8469 26.6728C33.6163 26.5739 33.3528 26.5081 33.0892 26.5081C32.8257 26.5081 32.5622 26.5739 32.3316 26.6728C31.5739 27.0022 31.0798 27.6939 31.0798 28.5175V32.5692V32.8986L30.7834 33.0963C30.4869 33.2939 30.1904 33.5245 29.9598 33.7881C29.6963 34.0516 29.4986 34.3481 29.3339 34.6445C29.1692 34.941 29.0375 35.3034 28.9386 35.6328C28.8398 35.9622 28.8069 36.3245 28.8069 36.6869C28.8069 37.2469 28.9386 37.8069 29.1363 38.3339C29.3669 38.861 29.6634 39.3222 30.0586 39.7175C30.4539 40.1128 30.9151 40.4422 31.4422 40.6398C31.9363 40.8375 32.4963 40.9692 33.0892 40.9692C33.6492 40.9692 34.2092 40.8375 34.7363 40.6398C35.2634 40.4092 35.7245 40.1128 36.1198 39.7175C36.5151 39.3222 36.8445 38.861 37.0422 38.3339C37.2398 37.8398 37.3716 37.2798 37.3716 36.6869C37.3716 36.3245 37.3386 35.9622 37.2398 35.6328C37.141 35.3034 37.0092 34.9739 36.8445 34.6445Z" fill="#3766CC"/>
<circle cx="30" cy="30" r="29.25" stroke="#3766CC" stroke-width="1.5"/>
<mask id="mask0_0_1" style="mask-type:alpha" maskUnits="userSpaceOnUse" x="0" y="0" width="15" height="60">
<rect width="15" height="60" fill="#C4C4C4"/>
</mask>
<g mask="url(#mask0_0_1)">
<circle cx="30" cy="30" r="29.25" fill="#3766CC" stroke="#3766CC" stroke-width="1.5"/>
</g>
</svg>
