<svg width="60" height="60" viewBox="0 0 60 60" fill="none" xmlns="http://www.w3.org/2000/svg">
<circle cx="30" cy="30" r="29.25" stroke="#3766CC" stroke-width="1.5"/>
<g clip-path="url(#clip0_0_1)">
<path d="M33.648 40.9638V41.8988C33.648 42.6428 33.1015 43.2617 32.3904 43.3671L32.1599 44.2165C32.0348 44.6774 31.62 45 31.1393 45H28.8546C28.3739 45 27.9591 44.6774 27.834 44.2165L27.6101 43.3671C26.8924 43.2551 26.3459 42.6428 26.3459 41.8922V40.9572C26.3459 40.4568 26.7476 40.0551 27.248 40.0551H32.7459C33.2463 40.0617 33.648 40.4634 33.648 40.9638ZM37.8817 28.3613C37.8817 30.4881 37.0389 32.4173 35.6694 33.8329C34.629 34.9128 33.9574 36.2889 33.7336 37.7572C33.6348 38.3893 33.0883 38.8568 32.443 38.8568H27.5509C26.9122 38.8568 26.3591 38.3959 26.2669 37.7638C26.0365 36.2955 25.3583 34.8996 24.3179 33.8263C22.9747 32.4305 22.1385 30.5342 22.1188 28.4469C22.0727 24.0617 25.5624 20.5128 29.9476 20.4798C34.3262 20.4469 37.8817 23.9893 37.8817 28.3613ZM30.8891 23.5877C30.8891 23.1004 30.4941 22.6988 30.0002 22.6988C26.8661 22.6988 24.3114 25.2469 24.3114 28.3877C24.3114 28.8749 24.7064 29.2765 25.2002 29.2765C25.6875 29.2765 26.0891 28.8815 26.0891 28.3877C26.0891 26.228 27.8472 24.4765 30.0002 24.4765C30.4941 24.4765 30.8891 24.0815 30.8891 23.5877ZM30.0002 17.8922C30.4875 17.8922 30.8891 17.4971 30.8891 17.0033V13.8889C30.8891 13.4016 30.4941 13 30.0002 13C29.5064 13 29.1114 13.3951 29.1114 13.8889V17.0033C29.1114 17.4971 29.513 17.8922 30.0002 17.8922ZM19.5377 28.3547C19.5377 27.8675 19.1426 27.4658 18.6488 27.4658H15.5344C15.0472 27.4658 14.6455 27.8609 14.6455 28.3547C14.6455 28.842 15.0406 29.2436 15.5344 29.2436H18.6488C19.1426 29.2436 19.5377 28.8486 19.5377 28.3547ZM44.4661 27.4658H41.3517C40.8644 27.4658 40.4628 27.8609 40.4628 28.3547C40.4628 28.842 40.8579 29.2436 41.3517 29.2436H44.4661C44.9533 29.2436 45.355 28.8486 45.355 28.3547C45.355 27.8675 44.9599 27.4658 44.4661 27.4658ZM21.3484 35.7556L19.1426 37.9613C18.7937 38.3103 18.7937 38.87 19.1426 39.2189C19.3138 39.3901 19.5443 39.4757 19.7681 39.4757C19.992 39.4757 20.2225 39.3901 20.3937 39.2189L22.5994 37.0132C22.9484 36.6642 22.9484 36.1045 22.5994 35.7556C22.257 35.4066 21.6908 35.4066 21.3484 35.7556ZM38.0266 21.2173C38.2504 21.2173 38.4809 21.1317 38.6521 20.9605L40.8579 18.7547C41.2068 18.4058 41.2068 17.8461 40.8579 17.4971C40.5089 17.1481 39.9492 17.1481 39.6002 17.4971L37.3945 19.7029C37.0455 20.0519 37.0455 20.6115 37.3945 20.9605C37.5723 21.1317 37.7961 21.2173 38.0266 21.2173ZM21.3484 20.9539C21.5196 21.1251 21.75 21.2107 21.9739 21.2107C22.1978 21.2107 22.4282 21.1251 22.5994 20.9539C22.9484 20.6049 22.9484 20.0453 22.5994 19.6963L20.3937 17.4905C20.0447 17.1416 19.485 17.1416 19.136 17.4905C18.7871 17.8395 18.7871 18.3992 19.136 18.7481L21.3484 20.9539ZM38.6521 35.7556C38.3031 35.4066 37.7435 35.4066 37.3945 35.7556C37.0455 36.1045 37.0455 36.6642 37.3945 37.0132L39.6002 39.2189C39.7714 39.3901 40.0019 39.4757 40.2258 39.4757C40.4496 39.4757 40.6801 39.3901 40.8513 39.2189C41.2002 38.87 41.2002 38.3103 40.8513 37.9613L38.6521 35.7556Z" fill="#3766CC"/>
</g>
<defs>
<clipPath id="clip0_0_1">
<rect width="32" height="32" fill="white" transform="translate(14 13)"/>
</clipPath>
</defs>
</svg>
