<svg width="60" height="60" viewBox="0 0 60 60" fill="none" xmlns="http://www.w3.org/2000/svg">
<path d="M35.447 16.5999H37.9506C38.4118 16.5999 38.807 16.2376 38.807 15.7434C38.807 15.2823 38.4447 14.887 37.9506 14.887H35.447C34.9859 14.887 34.5906 15.2493 34.5906 15.7434C34.5906 16.2376 34.9859 16.5999 35.447 16.5999Z" fill="#3766CC"/>
<path d="M39.2682 23.6494H35.447C34.9859 23.6494 34.5906 24.0118 34.5906 24.5059C34.5906 24.9671 34.9529 25.3624 35.447 25.3624H39.2682C39.7294 25.3624 40.1247 25 40.1247 24.5059C40.1247 24.0118 39.7294 23.6494 39.2682 23.6494Z" fill="#3766CC"/>
<path d="M35.4139 28.2282C35.2163 27.8329 34.9528 27.4706 34.6563 27.1082C34.4586 26.8776 34.2281 26.6471 34.0304 26.4165V15.9412C34.0304 15.2824 33.8986 14.6235 33.6681 14.0635C32.8775 12.1859 31.1316 11 29.0892 11C27.0469 11 25.301 12.1859 24.5104 14.0635C24.2798 14.6565 24.1481 15.2824 24.1481 15.9412V26.4494C23.9175 26.6471 23.7198 26.8776 23.5222 27.1412C23.2257 27.5035 22.9951 27.8659 22.7645 28.2612C22.4681 28.7882 22.2375 29.3482 22.1057 29.9412C21.941 30.5341 21.8751 31.1271 21.8751 31.7529C21.8751 32.7412 22.0728 33.6635 22.4351 34.52C22.7975 35.4094 23.3575 36.2 24.0163 36.8588C24.6751 37.5176 25.4657 38.0447 26.3551 38.44C27.2116 38.8024 28.1339 39 29.1222 39C31.1316 39 32.9433 38.1765 34.2281 36.8918C34.8869 36.2329 35.4139 35.4424 35.8092 34.5529C36.1716 33.6965 36.3692 32.7741 36.3692 31.7859C36.3692 31.16 36.3033 30.5671 36.1386 29.9741C35.941 29.3153 35.7104 28.7553 35.4139 28.2282ZM34.1951 33.8282C33.9316 34.4871 33.5033 35.1129 32.9763 35.64C31.9881 36.6282 30.5716 37.2541 29.0563 37.2541C28.2986 37.2541 27.5739 37.0894 26.9481 36.8259C26.2892 36.5624 25.6634 36.1341 25.1363 35.6071C24.6092 35.08 24.2139 34.4871 23.9175 33.7953C23.6539 33.1365 23.4892 32.4447 23.4892 31.6871C23.4892 31.1929 23.5551 30.7318 23.6539 30.3035C23.7528 29.8424 23.9504 29.4141 24.181 29.0188C24.3457 28.7224 24.5434 28.4259 24.741 28.1624C24.9716 27.8988 25.2022 27.6682 25.4657 27.4376L25.7622 27.1741V26.7788V15.9412C25.7622 15.5129 25.861 15.0847 25.9928 14.6894C26.1575 14.3271 26.3551 13.9976 26.6186 13.7012L26.6845 13.6353C26.981 13.3388 27.3434 13.0753 27.7386 12.9106C28.1339 12.7459 28.5292 12.68 28.9904 12.68C29.4186 12.68 29.8469 12.7788 30.2422 12.9106C30.6375 13.0753 30.9998 13.3059 31.2963 13.6353L31.3622 13.7012C31.6257 13.9976 31.8563 14.3271 31.9881 14.6894C32.1528 15.0847 32.2186 15.48 32.2186 15.9412V26.8447V27.24L32.5151 27.5035C32.7786 27.7341 33.0092 27.9647 33.2398 28.2282C33.4375 28.4918 33.6351 28.7882 33.7998 29.0847C34.0304 29.48 34.1951 29.9412 34.3269 30.3694C34.4257 30.7976 34.4916 31.2588 34.4916 31.7529C34.6233 32.4776 34.4586 33.2024 34.1951 33.8282Z" fill="#3766CC"/>
<path d="M35.447 19.5318H39.2682C39.7294 19.5318 40.1247 19.1694 40.1247 18.6753C40.0917 18.1812 39.7294 17.8188 39.2682 17.8188H35.447C34.9859 17.8188 34.5906 18.1812 34.5906 18.6753C34.5906 19.1365 34.9529 19.5318 35.447 19.5318Z" fill="#3766CC"/>
<path d="M35.447 22.4305H37.9506C38.4118 22.4305 38.807 22.0681 38.807 21.574C38.807 21.1128 38.4447 20.7175 37.9506 20.7175H35.447C34.9859 20.7175 34.5906 21.0799 34.5906 21.574C34.5906 22.0352 34.9859 22.4305 35.447 22.4305Z" fill="#3766CC"/>
<path d="M32.8444 29.6445C32.6797 29.3151 32.4491 29.0516 32.2185 28.7881C31.955 28.5245 31.6915 28.2939 31.395 28.0963L31.0985 27.8986V27.5692V23.5175C31.0985 22.6939 30.6374 21.9692 29.8468 21.6728C29.6162 21.5739 29.3526 21.5081 29.0891 21.5081C28.8256 21.5081 28.5621 21.5739 28.3315 21.6728C27.5738 22.0022 27.0797 22.6939 27.0797 23.5175V27.5692V27.8986L26.7832 28.0963C26.4868 28.2939 26.1903 28.5245 25.9597 28.7881C25.6962 29.0516 25.4985 29.3481 25.3338 29.6445C25.1691 29.941 25.0374 30.3034 24.9385 30.6328C24.8397 30.9622 24.8068 31.3245 24.8068 31.6869C24.8068 32.2469 24.9385 32.8069 25.1362 33.3339C25.3668 33.861 25.6632 34.3222 26.0585 34.7175C26.4538 35.1128 26.915 35.4422 27.4421 35.6398C27.9362 35.8375 28.4962 35.9692 29.0891 35.9692C29.6491 35.9692 30.2091 35.8375 30.7362 35.6398C31.2632 35.4092 31.7244 35.1128 32.1197 34.7175C32.515 34.3222 32.8444 33.861 33.0421 33.3339C33.2397 32.8398 33.3715 32.2798 33.3715 31.6869C33.3715 31.3245 33.3385 30.9622 33.2397 30.6328C33.1409 30.3034 33.0091 29.9739 32.8444 29.6445Z" fill="#3766CC"/>
<circle cx="30" cy="30" r="29.25" stroke="#3766CC" stroke-width="1.5"/>
<mask id="mask0_0_1" style="mask-type:alpha" maskUnits="userSpaceOnUse" x="0" y="45" width="60" height="15">
<rect y="45" width="60" height="15" fill="#C4C4C4"/>
</mask>
<g mask="url(#mask0_0_1)">
<circle cx="30" cy="30" r="29.25" fill="#3766CC" stroke="#3766CC" stroke-width="1.5"/>
</g>
</svg>
