<svg width="40" height="40" viewBox="0 0 40 40" fill="none" xmlns="http://www.w3.org/2000/svg">
<rect x="0.5" y="0.5" width="39" height="39" rx="2.5" stroke="white" stroke-opacity="0.5"/>
<path fill-rule="evenodd" clip-rule="evenodd" d="M20.0009 10C17.2851 10 16.9442 10.0119 15.8776 10.0604C14.813 10.1092 14.0863 10.2777 13.4505 10.525C12.7927 10.7804 12.2348 11.1221 11.679 11.6781C11.1227 12.234 10.781 12.7919 10.5248 13.4494C10.2769 14.0854 10.1081 14.8123 10.0602 15.8765C10.0125 16.9431 10 17.2842 10 20C10 22.7158 10.0121 23.0556 10.0604 24.1223C10.1094 25.1869 10.2779 25.9135 10.525 26.5494C10.7806 27.2071 11.1223 27.765 11.6784 28.3208C12.234 28.8771 12.7919 29.2196 13.4492 29.475C14.0855 29.7223 14.8123 29.8908 15.8767 29.9396C16.9434 29.9881 17.284 30 19.9997 30C22.7158 30 23.0556 29.9881 24.1222 29.9396C25.1868 29.8908 25.9143 29.7223 26.5506 29.475C27.2081 29.2196 27.7652 28.8771 28.3208 28.3208C28.8771 27.765 29.2187 27.2071 29.475 26.5496C29.7208 25.9135 29.8896 25.1867 29.9396 24.1225C29.9875 23.0558 30 22.7158 30 20C30 17.2842 29.9875 16.9433 29.9396 15.8767C29.8896 14.8121 29.7208 14.0854 29.475 13.4496C29.2187 12.7919 28.8771 12.234 28.3208 11.6781C27.7646 11.1219 27.2083 10.7802 26.55 10.525C25.9125 10.2777 25.1854 10.1092 24.1208 10.0604C23.0541 10.0119 22.7145 10 19.9978 10H20.0009ZM19.104 11.802C19.3703 11.8015 19.6674 11.802 20.0011 11.802C22.6712 11.802 22.9876 11.8115 24.042 11.8595C25.017 11.904 25.5462 12.067 25.8987 12.2038C26.3654 12.3851 26.6981 12.6017 27.0479 12.9517C27.3979 13.3017 27.6145 13.6351 27.7962 14.1017C27.9331 14.4538 28.0962 14.983 28.1406 15.958C28.1885 17.0122 28.1989 17.3288 28.1989 19.9976C28.1989 22.6663 28.1885 22.983 28.1406 24.0372C28.096 25.0122 27.9331 25.5413 27.7962 25.8934C27.615 26.3601 27.3979 26.6924 27.0479 27.0422C26.6979 27.3922 26.3656 27.6088 25.8987 27.7901C25.5466 27.9276 25.017 28.0901 24.042 28.1347C22.9878 28.1826 22.6712 28.193 20.0011 28.193C17.3309 28.193 17.0144 28.1826 15.9603 28.1347C14.9852 28.0897 14.4561 27.9267 14.1034 27.7899C13.6367 27.6086 13.3034 27.392 12.9534 27.042C12.6033 26.692 12.3867 26.3595 12.205 25.8926C12.0681 25.5405 11.905 25.0113 11.8606 24.0363C11.8127 22.9822 11.8031 22.6655 11.8031 19.9951C11.8031 17.3247 11.8127 17.0097 11.8606 15.9555C11.9052 14.9805 12.0681 14.4513 12.205 14.0988C12.3863 13.6322 12.6033 13.2988 12.9534 12.9488C13.3034 12.5988 13.6367 12.3822 14.1034 12.2005C14.4559 12.063 14.9852 11.9005 15.9603 11.8557C16.8828 11.814 17.2403 11.8015 19.104 11.7995V11.802ZM25.339 13.4623C24.6765 13.4623 24.1389 13.9991 24.1389 14.6618C24.1389 15.3243 24.6765 15.8618 25.339 15.8618C26.0015 15.8618 26.539 15.3243 26.539 14.6618C26.539 13.9993 26.0015 13.4618 25.339 13.4618V13.4623ZM20.001 14.8644C17.165 14.8644 14.8656 17.1638 14.8656 19.9998C14.8656 22.8359 17.165 25.1342 20.001 25.1342C22.8371 25.1342 25.1357 22.8359 25.1357 19.9998C25.1357 17.1638 22.8369 14.8644 20.0008 14.8644H20.001ZM20.0012 16.6665C21.842 16.6665 23.3345 18.1588 23.3345 19.9999C23.3345 21.8407 21.842 23.3332 20.0012 23.3332C18.1601 23.3332 16.6678 21.8407 16.6678 19.9999C16.6678 18.1588 18.1601 16.6665 20.0012 16.6665Z" fill="white" fill-opacity="0.5"/>
</svg>
