<svg width="50" height="28" viewBox="0 0 50 28" fill="none" xmlns="http://www.w3.org/2000/svg">
<path d="M0 1.99902C0 0.894455 0.895431 -0.000976563 2 -0.000976563L46.8494 -0.000976563C48.3152 -0.000976563 49.2831 1.52365 48.6593 2.8501L43.8169 13.1479C43.5634 13.687 43.5634 14.311 43.8169 14.8501L48.6593 25.1479C49.2831 26.4744 48.3152 27.999 46.8494 27.999L2 27.999C0.895432 27.999 0 27.1036 0 25.999L0 1.99902Z" fill="#B40606"/>
<path d="M7.88 18.999V16.599H10.312V11.831L10.328 10.951H10.296C10.2 11.1644 10.0507 11.367 9.848 11.559L9.16 12.183L7.544 10.455L10.632 7.55902H13.048V16.599H15.496V18.999H7.88ZM16.2121 16.231V14.535L20.6281 7.55902H24.0521V13.911H25.4121V16.231H24.0521V18.999H21.2841V16.231H16.2121ZM19.0601 13.911H21.2841V11.351L21.3801 10.071H21.3481C21.1881 10.5404 21.0015 10.935 20.7881 11.255L19.0601 13.879V13.911ZM26.5451 17.687L27.8891 15.527C28.6145 16.2097 29.3878 16.551 30.2091 16.551C30.6251 16.551 30.9931 16.4284 31.3131 16.183C31.6438 15.927 31.8091 15.5804 31.8091 15.143C31.8091 14.7057 31.6385 14.359 31.2971 14.103C30.9558 13.847 30.5185 13.719 29.9851 13.719C29.4731 13.719 28.9611 13.847 28.4491 14.103L26.9611 13.543L27.4251 7.55902H33.8251V9.95902H29.8571L29.7931 11.015L29.7291 11.463H29.7611C29.9638 11.3884 30.2411 11.351 30.5931 11.351C31.8945 11.351 32.9025 11.7084 33.6171 12.423C34.3318 13.127 34.6891 14.023 34.6891 15.111C34.6891 16.295 34.2945 17.271 33.5051 18.039C32.7158 18.807 31.6971 19.191 30.4491 19.191C28.8918 19.191 27.5905 18.6897 26.5451 17.687Z" fill="white"/>
</svg>
