<svg width="22" height="28" viewBox="0 0 22 28" fill="none" xmlns="http://www.w3.org/2000/svg">
<path d="M12.1734 0.96481C11.4061 -0.344071 10.5937 -0.298937 9.82645 0.96481C6.30601 6.20033 0.980225 14.0536 0.980225 17.9803C0.980225 20.7334 2.10857 23.2609 3.91392 25.0663C5.71927 26.8716 8.24677 28 10.9999 28C13.7531 28 16.2806 26.8716 18.0859 25.0663C19.8913 23.2609 21.0196 20.7334 21.0196 17.9803C21.0196 14.0085 15.6938 6.20033 12.1734 0.96481ZM18.2213 22.4485C17.4992 23.622 16.4611 24.6601 15.1974 25.3822C14.6106 25.6981 13.8885 25.5176 13.5726 24.9309C13.2115 24.299 13.4372 23.5769 14.0239 23.2609C14.9266 22.7644 15.6487 22.0423 16.1903 21.1848C16.7319 20.3272 17.0479 19.3343 17.093 18.2962C17.1381 17.6192 17.6797 17.1227 18.3567 17.1679C19.0337 17.213 19.5302 17.7546 19.4851 18.4316C19.3948 19.8759 18.9435 21.2299 18.2213 22.4485Z" fill="#3766CC"/>
</svg>
