<svg width="40" height="40" viewBox="0 0 40 40" fill="none" xmlns="http://www.w3.org/2000/svg">
<rect x="0.5" y="0.5" width="39" height="39" rx="2.5" stroke="white" stroke-opacity="0.5"/>
<g clip-path="url(#clip0_301_1827)">
<path d="M19.515 10.0116C14.2331 10.2631 10.0648 14.6619 10.0809 19.9499C10.0857 21.5605 10.4746 23.0806 11.1605 24.4238L10.1074 29.5357C10.0504 29.8122 10.2998 30.0543 10.5745 29.9893L15.5835 28.8026C16.8704 29.4436 18.3159 29.8139 19.8457 29.8372C25.2444 29.9197 29.7459 25.633 29.9142 20.2363C30.0946 14.4514 25.3201 9.7351 19.515 10.0116ZM25.4919 25.4111C24.025 26.8781 22.0745 27.6859 20 27.6859C18.7853 27.6859 17.6223 27.4134 16.5433 26.8759L15.8457 26.5284L12.7746 27.256L13.4211 24.1179L13.0774 23.445C12.5172 22.3479 12.2332 21.1617 12.2332 19.9192C12.2332 17.8446 13.0411 15.8942 14.508 14.4272C15.9619 12.9734 17.9441 12.1524 20.0001 12.1524C22.0747 12.1524 24.025 12.9603 25.492 14.4272C26.9589 15.8941 27.7668 17.8445 27.7668 19.919C27.7668 21.9751 26.9457 23.9573 25.4919 25.4111Z" fill="white" fill-opacity="0.5"/>
<path d="M24.8139 22.0703L22.8926 21.5186C22.64 21.4461 22.368 21.5177 22.1839 21.7053L21.7141 22.184C21.516 22.3858 21.2153 22.4507 20.9531 22.3446C20.0442 21.9768 18.1323 20.2768 17.6441 19.4265C17.5032 19.1813 17.5265 18.8746 17.6994 18.6508L18.1096 18.1201C18.2704 17.9122 18.3043 17.633 18.198 17.3926L17.3896 15.5643C17.196 15.1264 16.6364 14.999 16.2709 15.3082C15.7346 15.7617 15.0984 16.4509 15.021 17.2144C14.8847 18.5606 15.462 20.2576 17.6452 22.2952C20.1673 24.6492 22.187 24.9602 23.5021 24.6417C24.2479 24.461 24.844 23.7367 25.2202 23.1437C25.4767 22.7394 25.2742 22.2024 24.8139 22.0703Z" fill="white" fill-opacity="0.5"/>
</g>
<defs>
<clipPath id="clip0_301_1827">
<rect x="10" y="10" width="20" height="20" fill="white"/>
</clipPath>
</defs>
</svg>
