<svg width="40" height="40" viewBox="0 0 40 40" fill="none" xmlns="http://www.w3.org/2000/svg">
<rect x="0.5" y="0.5" width="39" height="39" rx="2.5" stroke="white" stroke-opacity="0.5"/>
<g clip-path="url(#clip0_301_1841)">
<path d="M29.894 24.5999C29.8698 24.5478 29.8472 24.5045 29.8262 24.4698C29.4792 23.8448 28.8161 23.0777 27.8373 22.1683L27.8166 22.1475L27.8063 22.1372L27.7958 22.1268H27.7853C27.341 21.7033 27.0597 21.4186 26.9419 21.2728C26.7264 20.9951 26.6781 20.714 26.7959 20.4292C26.8791 20.214 27.1918 19.7595 27.7331 19.0652C28.0178 18.6972 28.2433 18.4023 28.4099 18.1801C29.611 16.5834 30.1317 15.563 29.9719 15.1187L29.9099 15.0148C29.8682 14.9523 29.7606 14.8951 29.5872 14.843C29.4135 14.7909 29.1914 14.7823 28.9206 14.817L25.9217 14.8377C25.8731 14.8205 25.8037 14.8221 25.7134 14.843C25.6231 14.8638 25.5779 14.8743 25.5779 14.8743L25.5257 14.9004L25.4843 14.9317C25.4496 14.9524 25.4114 14.9889 25.3697 15.0409C25.3282 15.0928 25.2936 15.1537 25.2658 15.2232C24.9393 16.0631 24.5681 16.8441 24.1515 17.5661C23.8946 17.9966 23.6587 18.3696 23.4433 18.6855C23.2281 19.0013 23.0476 19.234 22.9019 19.3831C22.756 19.5324 22.6244 19.652 22.5061 19.7423C22.3881 19.8327 22.298 19.8709 22.2355 19.8569C22.173 19.8429 22.1141 19.8291 22.0583 19.8152C21.9612 19.7527 21.8831 19.6677 21.8242 19.5601C21.765 19.4525 21.7252 19.3171 21.7044 19.1539C21.6836 18.9907 21.6714 18.8503 21.6679 18.7322C21.6646 18.6143 21.6661 18.4475 21.6732 18.2323C21.6804 18.017 21.6836 17.8713 21.6836 17.795C21.6836 17.5311 21.6888 17.2448 21.6991 16.9359C21.7096 16.6269 21.7181 16.3822 21.7252 16.2019C21.7323 16.0214 21.7356 15.8304 21.7356 15.6291C21.7356 15.4277 21.7233 15.2698 21.6991 15.1552C21.6752 15.0408 21.6385 14.9297 21.5901 14.822C21.5414 14.7144 21.4701 14.6312 21.3766 14.5721C21.2829 14.5131 21.1664 14.4662 21.0278 14.4314C20.6598 14.3482 20.1912 14.3031 19.6219 14.2961C18.3307 14.2823 17.501 14.3656 17.1331 14.5461C16.9873 14.6224 16.8554 14.7266 16.7375 14.8584C16.6125 15.0112 16.595 15.0946 16.6853 15.1083C17.1019 15.1707 17.3968 15.32 17.5703 15.556L17.6329 15.6811C17.6816 15.7713 17.7301 15.931 17.7788 16.1601C17.8273 16.3891 17.8586 16.6425 17.8724 16.9201C17.9071 17.4269 17.9071 17.8608 17.8724 18.2217C17.8377 18.5828 17.8048 18.8639 17.7735 19.0652C17.7422 19.2666 17.6953 19.4297 17.6329 19.5546C17.5703 19.6796 17.5287 19.756 17.5079 19.7837C17.487 19.8114 17.4697 19.8289 17.4559 19.8357C17.3657 19.8703 17.2718 19.8879 17.1747 19.8879C17.0774 19.8879 16.9595 19.8393 16.8207 19.742C16.6819 19.6448 16.5378 19.5112 16.3886 19.3411C16.2393 19.171 16.0709 18.9332 15.8834 18.6278C15.6961 18.3224 15.5017 17.9614 15.3003 17.5449L15.1338 17.2428C15.0296 17.0485 14.8874 16.7655 14.7069 16.3942C14.5263 16.0227 14.3666 15.6634 14.2279 15.3163C14.1724 15.1705 14.089 15.0595 13.978 14.9832L13.9259 14.9518C13.8912 14.9241 13.8356 14.8947 13.7593 14.8633C13.6829 14.832 13.6032 14.8095 13.5198 14.7957L10.6666 14.8164C10.375 14.8164 10.1772 14.8825 10.073 15.0144L10.0313 15.0768C10.0105 15.1115 10 15.1671 10 15.2435C10 15.3198 10.0208 15.4136 10.0625 15.5246C10.479 16.5035 10.932 17.4476 11.4214 18.357C11.9108 19.2664 12.336 19.9989 12.6969 20.554C13.0579 21.1094 13.4258 21.6336 13.8007 22.1264C14.1756 22.6193 14.4238 22.9352 14.5452 23.074C14.6668 23.213 14.7623 23.317 14.8317 23.3864L15.092 23.6362C15.2586 23.8029 15.5033 24.0025 15.8261 24.235C16.149 24.4676 16.5065 24.6967 16.8987 24.9225C17.291 25.1479 17.7474 25.3319 18.2681 25.4742C18.7887 25.6166 19.2955 25.6737 19.7884 25.6462H20.986C21.2288 25.6252 21.4128 25.5488 21.5379 25.417L21.5793 25.3648C21.6072 25.3234 21.6333 25.259 21.6573 25.1724C21.6817 25.0856 21.6938 24.99 21.6938 24.886C21.6867 24.5876 21.7094 24.3186 21.7614 24.0791C21.8133 23.8397 21.8724 23.6592 21.9386 23.5376C22.0047 23.4162 22.0793 23.3137 22.1624 23.2306C22.2456 23.1474 22.3049 23.0969 22.3397 23.0796C22.3743 23.0621 22.4019 23.0502 22.4227 23.0431C22.5893 22.9876 22.7854 23.0414 23.0112 23.2047C23.2369 23.3678 23.4486 23.5692 23.6465 23.8086C23.8444 24.0483 24.0821 24.3171 24.3597 24.6156C24.6376 24.9141 24.8805 25.1361 25.0886 25.2821L25.2968 25.407C25.4359 25.4904 25.6164 25.5668 25.8386 25.6362C26.0604 25.7055 26.2547 25.7229 26.4215 25.6882L29.0872 25.6466C29.3509 25.6466 29.556 25.603 29.7015 25.5164C29.8474 25.4296 29.934 25.334 29.9619 25.23C29.9898 25.1259 29.9913 25.0078 29.9672 24.8758C29.9425 24.7441 29.9182 24.652 29.894 24.5999Z" fill="white" fill-opacity="0.5"/>
</g>
<defs>
<clipPath id="clip0_301_1841">
<rect x="10" y="10" width="20" height="20" fill="white"/>
</clipPath>
</defs>
</svg>
