<svg width="40" height="40" viewBox="0 0 40 40" fill="none" xmlns="http://www.w3.org/2000/svg">
<rect x="0.5" y="0.5" width="39" height="39" rx="2.5" stroke="white" stroke-opacity="0.5"/>
<g clip-path="url(#clip0_301_1833)">
<path d="M13.9341 20.7342C13.4233 21.7384 14.0033 22.2184 15.3266 23.0384C16.4516 23.7334 18.0058 23.9876 19.0041 24.0892C18.595 24.4826 20.47 22.6792 15.07 27.8734C13.925 28.9709 15.7683 30.7317 16.9125 29.6576L20.01 26.6701C21.1958 27.8109 22.3325 28.9042 23.1075 29.6617C24.2525 30.7401 26.095 28.9942 24.9625 27.8776C24.8775 27.7967 20.765 23.8517 21.0158 24.0934C22.0266 23.9917 23.5575 23.7226 24.6691 23.0426L24.6683 23.0417C25.9916 22.2176 26.5716 21.7384 26.0683 20.7342C25.7641 20.1642 24.9441 19.6876 23.8525 20.5117C23.8525 20.5117 22.3783 21.6409 20.0008 21.6409C17.6225 21.6409 16.1491 20.5117 16.1491 20.5117C15.0583 19.6834 14.235 20.1642 13.9341 20.7342Z" fill="white" fill-opacity="0.5"/>
<path d="M19.9992 20.1183C22.8976 20.1183 25.2642 17.8533 25.2642 15.065C25.2642 12.265 22.8976 10 19.9992 10C17.1001 10 14.7334 12.265 14.7334 15.065C14.7334 17.8533 17.1001 20.1183 19.9992 20.1183ZM19.9992 12.5658C21.4234 12.5658 22.5851 13.6833 22.5851 15.065C22.5851 16.435 21.4234 17.5525 19.9992 17.5525C18.5751 17.5525 17.4134 16.435 17.4134 15.065C17.4126 13.6825 18.5742 12.5658 19.9992 12.5658Z" fill="white" fill-opacity="0.5"/>
</g>
<defs>
<clipPath id="clip0_301_1833">
<rect x="10" y="10" width="20" height="20" fill="white"/>
</clipPath>
</defs>
</svg>
